<svg xmlns="http://www.w3.org/2000/svg" width="48" height="46" fill="none" viewBox="0 0 48 46">
  <style>
    .logo-base {
      fill: #111111;
      transition: fill 0.3s ease;
    }
    .glow-light {
      fill: #FFFFFF;
      fill-opacity: 0.2;
    }
    .glow-dark {
      fill: #000000;
      fill-opacity: 0.15;
    }
    @media (prefers-color-scheme: dark) {
      .logo-base {
        fill: #EEEEEE;
      }
      .glow-light {
        fill: #000000;
        fill-opacity: 0.2;
      }
      .glow-dark {
        fill: #FFFFFF;
        fill-opacity: 0.15;
      }
    }
  </style>
  
  <!-- Base logo shape -->
  <path class="logo-base" d="M25.946 44.938c-.664.845-2.021.375-2.021-.698V33.937a2.26 2.26 0 0 0-2.262-2.262H10.287c-.92 0-1.456-1.04-.92-1.788l7.48-10.471c1.07-1.497 0-3.578-1.842-3.578H1.237c-.92 0-1.456-1.04-.92-1.788L10.013.474c.214-.297.556-.474.92-.474h28.894c.92 0 1.456 1.04.92 1.788l-7.48 10.471c-1.07 1.498 0 3.579 1.842 3.579h11.377c.943 0 1.473 1.088.89 1.83L25.947 44.94z" />
  
  <!-- Clipping mask for inner glows -->
  <mask id="a" width="48" height="46" x="0" y="0" maskUnits="userSpaceOnUse" style="mask-type:alpha">
    <path fill="#000" d="M25.842 44.938c-.664.844-2.021.375-2.021-.698V33.937a2.26 2.26 0 0 0-2.262-2.262H10.183c-.92 0-1.456-1.04-.92-1.788l7.48-10.471c1.07-1.498 0-3.579-1.842-3.579H1.133c-.92 0-1.456-1.04-.92-1.787L9.91.473c.214-.297.556-.474.92-.474h28.894c.92 0 1.456 1.04.92 1.788l-7.48 10.471c-1.07 1.498 0 3.578 1.842 3.578h11.377c.943 0 1.473 1.088.89 1.832L25.843 44.94z"/>
  </mask>
  
  <!-- Premium inner glassmorphic glow effects -->
  <g mask="url(#a)">
    <g filter="url(#b)">
      <ellipse cx="5.508" cy="14.704" class="glow-light" rx="5.508" ry="14.704" transform="matrix(.00324 1 1 -.00324 -4.47 31.516)"/>
    </g>
    <g filter="url(#c)">
      <ellipse cx="10.399" cy="29.851" class="glow-light" rx="10.399" ry="29.851" transform="matrix(.00324 1 1 -.00324 -39.328 7.883)"/>
    </g>
    <g filter="url(#d)">
      <ellipse cx="5.508" cy="30.487" class="glow-dark" rx="5.508" ry="30.487" transform="rotate(89.814 -25.913 -14.639)scale(1 -1)"/>
    </g>
    <g filter="url(#e)">
      <ellipse cx="5.508" cy="30.599" class="glow-dark" rx="5.508" ry="30.599" transform="rotate(89.814 -32.644 -3.334)scale(1 -1)"/>
    </g>
    <g filter="url(#f)">
      <ellipse cx="5.508" cy="30.599" class="glow-dark" rx="5.508" ry="30.599" transform="matrix(.00324 1 1 -.00324 -34.34 30.47)"/>
    </g>
  </g>
  
  <defs>
    <filter id="b" width="60.045" height="41.654" x="-19.77" y="16.149" color-interpolation-filters="sRGB" filterUnits="userSpaceOnUse">
      <feFlood flood-opacity="0" result="BackgroundImageFix"/>
      <feBlend in="SourceGraphic" in2="BackgroundImageFix" result="shape"/>
      <feGaussianBlur result="effect1_foregroundBlur_2002_17158" stdDeviation="7.659"/>
    </filter>
    <filter id="c" width="90.34" height="51.437" x="-54.613" y="-7.533" color-interpolation-filters="sRGB" filterUnits="userSpaceOnUse">
      <feFlood flood-opacity="0" result="BackgroundImageFix"/>
      <feBlend in="SourceGraphic" in2="BackgroundImageFix" result="shape"/>
      <feGaussianBlur result="effect1_foregroundBlur_2002_17158" stdDeviation="7.659"/>
    </filter>
    <filter id="d" width="79.355" height="29.4" x="-49.64" y="2.03" color-interpolation-filters="sRGB" filterUnits="userSpaceOnUse">
      <feFlood flood-opacity="0" result="BackgroundImageFix"/>
      <feBlend in="SourceGraphic" in2="BackgroundImageFix" result="shape"/>
      <feGaussianBlur result="effect1_foregroundBlur_2002_17158" stdDeviation="4.596"/>
    </filter>
    <filter id="e" width="79.579" height="29.4" x="-45.045" y="20.029" color-interpolation-filters="sRGB" filterUnits="userSpaceOnUse">
      <feFlood flood-opacity="0" result="BackgroundImageFix"/>
      <feBlend in="SourceGraphic" in2="BackgroundImageFix" result="shape"/>
      <feGaussianBlur result="effect1_foregroundBlur_2002_17158" stdDeviation="4.596"/>
    </filter>
    <filter id="f" width="79.579" height="29.4" x="-43.513" y="21.178" color-interpolation-filters="sRGB" filterUnits="userSpaceOnUse">
      <feFlood flood-opacity="0" result="BackgroundImageFix"/>
      <feBlend in="SourceGraphic" in2="BackgroundImageFix" result="shape"/>
      <feGaussianBlur result="effect1_foregroundBlur_2002_17158" stdDeviation="4.596"/>
    </filter>
  </defs>
</svg>